<svg xmlns="http://www.w3.org/2000/svg" width="81" height="82" viewBox="0 0 81 82"><defs><clipPath id="a"><path fill="none" d="M0 0h51.035v82H0z"/></clipPath></defs><g transform="translate(1211 6465)"><path fill="none" d="M-1211-6465h81v82h-81z"/><g clip-path="url(#a)" transform="translate(-1196 -6465)"><path fill="#a5b7c4" d="M16.215 1.103a1.232 1.232 0 0 0 1.306 1.3l22.265.009c.7 0 .7 1.684.618 2.223l-.318.213-32.711.01a3.8 3.8 0 0 1-.074-1.321A1.123 1.123 0 0 1 8.528 2.39l3.213.014a1.246 1.246 0 0 0 1.291-1.3Z"/><path fill="#c2d3de" d="M48.255 18.927a.4.4 0 0 0-.149.023l-.321-.18q0-1.369-.009-2.742l.319-.226a.5.5 0 0 0 .166.022Z"/><path fill="#b5c7d3" d="m48.097 15.8.01 3.148a1.3 1.3 0 0 0-1.153 1.409l.007 26.707a5.27 5.27 0 0 1-1.7 3.776L32.474 63.078l-13.364.029a.52.52 0 0 1-.414-.163h9.2l11.859-11.361a6.48 6.48 0 0 0 1.94-4.686V8.362a1.76 1.76 0 0 0-.236-.992H4.912c-.022-.097.049-.17.283-.17l35.979.029 4.818.042a1.055 1.055 0 0 1 .965 1.063l.026 6.4c0 .642.626.958 1.115 1.071"/><path fill="#cee0e6" d="M4.912 7.367q18.273-.144 36.592-.066a.5.5 0 0 1 .462.5l.049 39.1a6.85 6.85 0 0 1-2.03 4.907L28.41 62.865l-.484.148q-4.623.071-9.231-.07L5.862 50.907a5.36 5.36 0 0 1-1.8-4.005l.009-38.675a.845.845 0 0 1 .84-.86"/><path fill="#060707" d="m27.309 51.345-3.389.037a1.206 1.206 0 0 1-1.223-1.195 1.23 1.23 0 0 1 1.368-1.21l3.052.013a1.165 1.165 0 0 1 1.211 1.087 1.143 1.143 0 0 1-1.014 1.269m-.11 4.873-3.138.023a1.234 1.234 0 0 1-1.364-1.09 1.21 1.21 0 0 1 1.216-1.319h3.188a1.2 1.2 0 0 1 1.212 1.083 1.157 1.157 0 0 1-1.115 1.3"/><path fill="#060607" d="M23.907 18.341a14.141 14.141 0 1 1-12.434 15.778 14.15 14.15 0 0 1 12.434-15.778"/><path fill="#798c97" d="M24.068 20.747a11.734 11.734 0 1 1-10.187 13.212 11.73 11.73 0 0 1 10.187-13.212"/><path fill="#060607" d="M24.545 23.159a9.283 9.283 0 1 1-8.257 10.338 9.28 9.28 0 0 1 8.257-10.338"/><path fill="#ffd65d" d="M30.708 27.88c1.178 2.475-.238 5.846-2.083 7.675s-5.223 3.184-7.686 1.959a6.875 6.875 0 1 1 9.77-9.634"/><path fill="#ffc546" d="M20.938 37.514a8.28 8.28 0 0 0 7.461-2.186 8.42 8.42 0 0 0 2.309-7.448 6.874 6.874 0 0 1-9.77 9.634"/><path fill="#a5b7c4" d="m6.504 59.725.014 19.853-2.449.009-.017-11.188a1.19 1.19 0 0 0-1.267-1.155V64.05a1.3 1.3 0 0 0 1.323-1.124l.056-5.248a.26.26 0 0 1 .2-.07 7 7 0 0 1 2.14 2.117"/><path fill="#060607" d="M13.032 1.108c.721.826-.37 1.465-1.285 1.62l-3.275-.015c-1.051.168-.933.993-.793 1.827l32.21-.01.2.32.141-.321 3.159-.009a1.64 1.64 0 0 0-.435-1.748l-2.841-.036-.323-.322-.112.321-22.266-.012c-.819.034-1.983-1.1-1.2-1.619 0-.382.384-1.1.98-1.1l26.075.039c1.546 0 2.566 1.551 2.861 2.844l.083 1.9c1.486.282 3.088 1.28 3.106 2.921l.072 6.871a1.22 1.22 0 0 1-1.127 1.248c-.058.145-.113.134-.166-.022-.718.546-1.291-.342-1.435-1.091l-.03-6.457a.75.75 0 0 0-.572-.658l-4.29-.041L41.4 7.3 5.2 7.285l-.287.082-.521.881L4.383 46.9a5.03 5.03 0 0 0 1.453 3.537l12.935 12.141-.077.366q4.558.152 9.21.064l.5-.241 3.982-.055 12.643-12.1a5 5 0 0 0 1.607-3.561V20.126c.146-.755.8-1.828 1.463-1.179 0-.15.051-.152.147-.022a1.194 1.194 0 0 1 1.123 1.288v59.364a1.41 1.41 0 0 1 1.39.494 1.094 1.094 0 0 1 .082 1.325l-.509.6h-9.125c-1.883-.437-1.136-2.568.482-2.839V58.05l-5.62 5.44c1.018.993.964 3.465.792 4.816a2.784 2.784 0 0 1-2.761 2.448H17.355c-3.657-.37-3.81-4.782-2.109-7.222q-2.893-2.758-5.88-5.505l-.032 21.135c1.62.268 2.365 2.4.483 2.839H.689c-.62-.65-.956-1.259-.426-1.927a1.315 1.315 0 0 1 1.387-.468l.013-11.384c0-.578.7-.969 1.122-.976.656-.69 1.361.219 1.574.955l.034 11.066 1.8-.007-.012-19.339.32-.2-.227-.23q-.162-2.26-.1-4.57a20 20 0 0 0-1.783-1.585l.018 4.307-.242.158-.056 5.121c.727.573-.874 1.9-1.323 1.124-.342-.022-1.134-.311-1.137-.83l.027-55.5c0-1.671 1.79-2.65 3.1-2.941l.109-1.871C5.2 1.488 6.221.057 7.744.049l4.315-.024a1.135 1.135 0 0 1 .972 1.083"/><path fill="#a5b7c4" d="M30.54 65.5c.122.022.3.064.313.158a8.3 8.3 0 0 1-.078 1.455q.1.686-.365.827l-13.24.008v-2.452Z"/><path fill="#8b9bab" d="M6.501 59.725a1.36 1.36 0 0 1-.617-.371l-1.638-1.567-.134 5.14-.042-10.4 2.429 2.261Zm23.91 8.214.129-2.439 3.611.006v2.423Z"/><path fill="#a5b7c3" d="m46.813 79.603-2.3-.02.014-19.852a10 10 0 0 1 2.012-2.109l.254.008c.17 7.2.15 14.772.024 21.973"/><path fill="#8b9bab" d="m46.814 79.599-.006-21.8-1.661 1.562a1.17 1.17 0 0 1-.624.365l-.008-4.808 2.43-2.294.026 26.9c0 .074-.124.107-.158.074M40.086 4.85l-.019-1.329a2.2 2.2 0 0 0-.281-1.107l3.021.017a1.037 1.037 0 0 1 .918 1.093l-.007 1.316Z"/></g></g></svg>