<svg xmlns="http://www.w3.org/2000/svg" width="81" height="82" viewBox="0 0 81 82"><defs><clipPath id="a"><path fill="none" d="M0 0h81v73.743H0z"/></clipPath></defs><g transform="translate(-812.051 -8741)"><path fill="none" d="M812.051 8741h81v82h-81z"/><g clip-path="url(#a)" transform="translate(812.051 8745)"><path fill="#a5daf3" d="m20.907 1.287.026 1.225 8.217.013c.124.031.286.071.319.179.065.206.088 2.921.053 3.253l-.313.235H14.075l.04-3.618 4.355-.064.02-1.224Z"/><path fill="#fff" d="M34.12 36.88H9.174l-.007-3.013a8.1 8.1 0 0 1 1.615-4.874l3.574-4.807a10.44 10.44 0 0 0 2.126-6.127l.041-3.172 10.459-.025.063.187a12.35 12.35 0 0 0 1.707 8.01l4.012 5.391a13.4 13.4 0 0 1 1.672 8.207Z"/><path fill="#a5daf3" d="m34.12 36.88-.009-2.991a9.68 9.68 0 0 0-2.018-5.846l-3.459-4.609a9.43 9.43 0 0 1-1.9-5.691l-.009-2.87-10.2.013c.053-.04.137-.159.254-.158l9.314.017c.919 0 1.747.094 2.681.032v2.647a11.36 11.36 0 0 0 2.267 6.92l3.46 4.61a8.24 8.24 0 0 1 1.659 4.955l.012 2.968Z"/><path fill="#fff" d="M26.729 8.669c.123.014.309.053.316.138a25 25 0 0 1-.01 3.357.5.5 0 0 1-.228.115H16.545a30 30 0 0 1 .064-3.615Z"/><path fill="#a5daf3" d="M26.729 8.668a17 17 0 0 1 2.05.03v3.634l-12.317.027-.018-3.336a.52.52 0 0 1 .165-.363l.005 3.535 10.115.02Z"/><path fill="#3cb8ea" d="m29.211 6.191-.06-3.667a9.6 9.6 0 0 1 2.033.063l.076 3.6Z"/><path fill="#fff" d="M69.782 36.879H57.701a1.64 1.64 0 0 0-.069 1.2l-2.419.051-.014-1.251H44.816v-2.7a8.78 8.78 0 0 1 1.731-5.338l3.441-4.617a11.02 11.02 0 0 0 2.172-6.635l.01-2.7q5.2-.167 10.44-.044l.079.183a12.45 12.45 0 0 0 1.759 8.09 67 67 0 0 1 4.64 6.542 15.15 15.15 0 0 1 1.014 6.991Z"/><path fill="#a5daf3" d="M64.9 2.516c.122.019.3.059.312.148a28 28 0 0 1-.1 3.314l-.323.213H49.724l.041-3.649Zm4.883 34.363-.009-2.846a10.23 10.23 0 0 0-2.182-6.209l-3.261-4.333a9.55 9.55 0 0 1-1.938-5.75l-.018-2.85h-10.2a.41.41 0 0 1 .347-.166l9.329.019 2.561.031.027 2.974a10.8 10.8 0 0 0 2.175 6.466l3.393 4.52a8.3 8.3 0 0 1 1.8 4.977l.016 3.164Z"/><path fill="#fff" d="M62.389 8.671c.123.015.309.053.316.139a25 25 0 0 1-.022 3.354.5.5 0 0 1-.228.116l-10.293.04.014-3.661Z"/><path fill="#a6daf3" d="m52.163 12.318 10.214-.1.013-3.549 2.04.027-.017 3.644Z"/><path fill="#3db9ec" d="m64.784 6.192.118-3.678a7 7 0 0 1 1.971.107l.049 3.563Z"/><path fill="#060607" d="M18.491 1.286c.527.1.378 1.272-.008 1.5l-4.031.1-.052 2.98 14.623.009.192.317.171-.317 1.556-.01-.071-3.008-1.472-.018-.244-.314c-.013.125-.058.314-.145.316-1.025.036-7.931.15-8.233-.132-.218-.2-.34-1.39.135-1.422L20.9 0l10.382.082a2.57 2.57 0 0 1 2.371 2.3l.059 6.339-2.4.011.056 9.8a6.06 6.06 0 0 0 1.047 3.338l4.628 6.419a7.66 7.66 0 0 1 1.516 4.337l.059 4.252h3.609l.056-2.673a11.74 11.74 0 0 1 2.27-6.876l3.256-4.354a7.75 7.75 0 0 0 1.8-4.509l.1-9.737-2.423-.013.106-6.645A2.64 2.64 0 0 1 49.676.056l17.378.021c1.282 0 2.362 1.639 2.369 2.746l.038 5.9-2.561.007.086 9.582a7.5 7.5 0 0 0 1.609 4.39l3.788 5.076a10.9 10.9 0 0 1 1.928 5.5l.049 3.6h6.642v16.453h-6.645v3.954l6.643.007-.008 16.451L0 73.74V57.288l.107-.316H6.24a25 25 0 0 0 .087-3.311l-6.141-.012L0 53.333V36.88h6.634l.06-3.912a11.1 11.1 0 0 1 2.1-5.483l3.506-4.723a6.9 6.9 0 0 0 1.567-3.938l.072-10.094-2.4-.016.042-5.983A2.9 2.9 0 0 1 14.7 0l3.793.024Zm46.294 4.905 2.135-.005-.049-3.562a7 7 0 0 0-1.971-.108l-15.135.026-.041 3.649ZM26.73 8.669H16.61a.52.52 0 0 0-.166.363l.013 3.332 12.317-.027V8.702a17 17 0 0 0-2.05-.03m25.434 3.651 12.248.024.023-3.647-2.04-.027-10.211-.014Zm-35.632 2.563-.041 3.173a10.43 10.43 0 0 1-2.128 6.127l-3.574 4.807a8.1 8.1 0 0 0-1.616 4.875l.006 3.012h26.994l-.013-2.968a8.24 8.24 0 0 0-1.654-4.956l-3.458-4.612a11.36 11.36 0 0 1-2.267-6.919v-2.648c-.934.063-1.761-.03-2.681-.031l-9.314-.018c-.118 0-.2.119-.255.158m35.646 0-.01 2.7a11.02 11.02 0 0 1-2.171 6.635l-3.447 4.621a8.78 8.78 0 0 0-1.73 5.338v2.7h10.383l.015 1.252-.039 1.212h-52.7l-.01 9.4.014 2.047 76.05.007.018-11.406-2.069-.039-18.79-.013.019-2.462h14.121l-.015-3.164a8.3 8.3 0 0 0-1.81-4.98l-3.393-4.52a10.82 10.82 0 0 1-2.175-6.466l-.027-2.973-2.561-.031-9.328-.02a.41.41 0 0 0-.348.167M9.161 53.333l.009 4.006 18.972-.008.094 2.464H2.461l.013 9.388.05 2.062H78.53l.012-11.423-2.07-.022H30.72l-.049-1.24.02-1.231h3.427l2.051-.023-.009-4.076c-.973.086-1.8-.047-2.8-.047l-23.993-.012a.22.22 0 0 0-.206.162m35.681 0-.026 4h24.966l2.04-.006v-4.1l-2.717-.041-23.994-.011c-.145 0-.208.116-.271.16m-2.6 3.944-.005-3.944-3.635-.011v3.966Z"/><path fill="#fff" d="m34.118 57.325-3.427.005-.021 1.23h-2.345l-.02-1.243a.116.116 0 0 0-.164.016l-18.972.007-.009-4.006c8.307-.153 16.9-.111 25.22-.013q.089 1.882.054 3.778Zm35.664.006H44.816l.026-4c8.3-.156 16.883-.1 25.2-.022q.087 1.891.06 3.792Z"/><path fill="#a4d8f0" d="M34.118 57.325v-3.994H9.16a.23.23 0 0 1 .206-.161l23.989.011c1 0 1.832.133 2.805.047l.009 4.073Z"/><path fill="#a5daf2" d="m69.781 57.331-.014-4.007-24.926.007c.064-.044.126-.16.271-.16l23.994.011 2.716.041v4.1Z"/><path fill="#daaa67" d="m30.672 58.56.049 1.24h45.751c.126.013.313.059.316.146.039 1.148.209 9.054-.116 9.395a.67.67 0 0 1-.353.166H2.672l-.2-.316-.013-9.389h25.775l-.094-2.463q.578-.582.5.912h1.815Z"/><path fill="#f17e00" d="M2.473 69.188h74v-9.39l2.069.027-.012 11.423H2.524Z"/><path fill="#fffffe" d="M50.547 68.731a10.3 10.3 0 0 1-2.465.056v-2.453h2.413Zm4.902-.002a10 10 0 0 1-2.459.056v-2.451h2.406Zm4.908 0a10 10 0 0 1-2.459.058v-2.452h2.407Z"/><path fill="#060708" d="m9.72 66.309-2.377.036-.03-2.433 2.386-.009Z"/><path fill="#060607" d="m73.728 66.324-2.406.01v-2.439h2.393Z"/><path fill="#daaa67" d="M76.472 39.351c.126.013.314.058.316.145.04 1.15.21 9.06-.115 9.4a.67.67 0 0 1-.354.166H2.657l-.2-.317.01-9.4h52.7l.039-1.212.133-.319 1.844-.039q-.027-.971.512-.894l-.018 2.461Z"/><path fill="#f17d00" d="m2.459 48.742 74.013.005v-9.4l2.069.039-.017 11.41-76.051-.007Z"/><path fill="#070808" d="m9.726 46.59-2.411.06v-2.461h2.368Z"/><path fill="#070708" d="M73.723 46.645h-2.391l-.02-2.43 2.406-.033Z"/></g></g></svg>